<svg width="4330" height="1020" viewBox="0 0 4330 1020" fill="none" xmlns="http://www.w3.org/2000/svg">
<rect width="4330" height="1020" fill="white"/>
<rect width="4330" height="1020" fill="white"/>
<mask id="mask0" mask-type="alpha" maskUnits="userSpaceOnUse" x="841" y="294" width="2597" height="433">
<path d="M1045.29 544.907C1051.07 541.92 1056.01 537.538 1059.67 532.158C1060.07 531.388 1060.67 530.74 1061.41 530.284C1062.15 529.828 1063 529.58 1063.87 529.568C1064.92 529.561 1065.94 529.907 1066.77 530.549L1082.27 542.821C1083.54 543.873 1084.35 545.38 1084.53 547.021C1084.47 548.061 1084.13 549.065 1083.55 549.928C1077.3 559.838 1068.49 567.873 1058.04 573.179C1046.53 578.953 1033.79 581.836 1020.91 581.579C1005.74 582.109 990.78 577.871 978.136 569.461C966.439 561.147 957.68 549.334 953.118 535.724C948.644 522.854 946.46 509.3 946.664 495.675C946.281 484.155 947.471 472.635 950.201 461.436C953.827 446.844 962.381 433.953 974.414 424.944C987.145 415.684 1002.59 410.913 1018.32 411.381C1058.57 411.381 1082.14 433.45 1089.03 477.587C1090.25 486.366 1091 495.204 1091.29 504.063C1091.39 504.765 1091.32 505.48 1091.1 506.152C1090.87 506.824 1090.49 507.435 1089.99 507.936C1089.49 508.437 1088.88 508.815 1088.21 509.04C1087.54 509.265 1086.82 509.331 1086.12 509.232H986.032C985.769 509.193 985.501 509.217 985.248 509.301C984.996 509.384 984.767 509.526 984.579 509.715C984.391 509.903 984.25 510.133 984.168 510.385C984.085 510.638 984.062 510.907 984.102 511.17C983.956 515.982 984.609 520.784 986.032 525.383C988.196 532.863 993.021 539.294 999.596 543.462C1007.07 547.994 1015.71 550.24 1024.45 549.925C1031.69 549.89 1038.83 548.172 1045.29 544.907ZM997.824 449.641C992.433 453.793 988.614 459.657 986.995 466.268C985.478 470.639 984.609 475.208 984.414 479.831C984.194 481.14 984.742 481.778 986.026 481.778H1050.93C1051.38 481.841 1051.84 481.722 1052.2 481.448C1052.56 481.174 1052.8 480.768 1052.87 480.317C1052.89 480.156 1052.89 479.992 1052.87 479.831C1052.46 475.923 1051.81 472.044 1050.93 468.215C1049.27 461.107 1045.23 454.78 1039.48 450.284C1033.28 445.715 1025.71 443.384 1018.01 443.67C1010.8 443.367 1003.7 445.468 997.824 449.641V449.641Z" fill="white"/>
<path d="M1137.74 574.946C1128.51 571.657 1120.32 565.969 1114.01 558.467C1108.56 551.884 1105.59 543.597 1105.62 535.049V533.44C1105.52 532.738 1105.59 532.024 1105.81 531.352C1106.03 530.68 1106.41 530.07 1106.91 529.568C1107.41 529.067 1108.02 528.689 1108.69 528.464C1109.36 528.239 1110.08 528.173 1110.78 528.271H1136.59C1140.04 528.271 1141.76 529.025 1141.76 530.533V532.796C1141.76 538.183 1144.72 542.869 1150.63 546.851C1157.34 551.056 1165.17 553.138 1173.08 552.825C1180.44 553.15 1187.74 551.296 1194.06 547.495C1196.46 546.163 1198.47 544.224 1199.88 541.872C1201.3 539.52 1202.07 536.838 1202.13 534.093C1202.21 531.796 1201.62 529.526 1200.45 527.551C1199.28 525.576 1197.56 523.979 1195.51 522.95C1188.66 519.546 1181.46 516.889 1174.04 515.026L1161.77 511.154C1152.25 508.475 1142.96 505.018 1134 500.816C1126.62 497.283 1120.11 492.156 1114.95 485.805C1109.59 478.835 1106.85 470.199 1107.21 461.411C1107 454.43 1108.49 447.501 1111.55 441.226C1114.62 434.952 1119.17 429.521 1124.81 425.405C1136.54 416.472 1152.09 412.005 1171.46 412.003C1183.28 411.76 1195.03 413.903 1206 418.305C1215.13 421.92 1223.11 427.951 1229.09 435.752C1234.54 443.068 1237.43 451.977 1237.32 461.102C1237.31 461.642 1237.18 462.173 1236.93 462.65C1236.67 463.126 1236.31 463.535 1235.86 463.841C1234.79 464.634 1233.48 465.035 1232.15 464.977H1207.32C1203.87 464.977 1202.15 464.321 1202.15 463.03V461.093C1202.1 458.24 1201.32 455.449 1199.88 452.988C1198.44 450.527 1196.39 448.477 1193.92 447.037C1187.18 442.936 1179.36 440.967 1171.48 441.389C1164.36 441.089 1157.28 442.706 1150.99 446.072C1148.58 447.299 1146.57 449.173 1145.17 451.483C1143.77 453.794 1143.05 456.449 1143.08 459.149C1143.04 461.622 1143.73 464.053 1145.04 466.146C1146.36 468.239 1148.26 469.904 1150.51 470.938C1158.47 474.736 1166.8 477.712 1175.37 479.819L1182.8 481.765C1192.69 484.591 1202.4 488.041 1211.85 492.097C1219.48 495.453 1226.22 500.539 1231.54 506.954C1237.13 514.007 1239.99 522.83 1239.62 531.818C1239.86 538.855 1238.33 545.842 1235.17 552.134C1232.01 558.427 1227.32 563.824 1221.54 567.83C1209.48 576.546 1193.45 580.905 1173.44 580.907C1161.27 581.154 1149.16 579.132 1137.74 574.946Z" fill="white"/>
<path d="M1286.06 568.803C1274.1 560.431 1265.25 548.339 1260.88 534.409C1253.99 509.249 1253.99 482.699 1260.88 457.54C1265.09 443.75 1273.93 431.835 1285.9 423.802C1298.65 415.338 1313.7 411 1329 411.378C1344.57 411.024 1359.89 415.418 1372.91 423.976C1384.59 431.346 1393.37 442.524 1397.76 455.621C1398.63 458.583 1399.28 461.606 1399.7 464.665V465.974C1399.7 468.342 1398.3 469.84 1395.51 470.49L1368.71 474.69H1367.4C1366.3 474.728 1365.23 474.35 1364.39 473.633C1363.56 472.915 1363.02 471.91 1362.89 470.815L1361.91 466.621C1360.28 459.976 1356.25 454.167 1350.6 450.303C1344.31 445.805 1336.72 443.482 1328.98 443.686C1321.54 443.457 1314.22 445.669 1308.15 449.985C1302.43 454.223 1298.38 460.34 1296.7 467.265C1294.25 476.639 1293.16 486.319 1293.48 496.004C1293.24 505.67 1294.22 515.328 1296.38 524.752C1298.23 531.822 1302.3 538.107 1308.01 542.673C1314.03 547.229 1321.44 549.569 1328.99 549.297C1336.53 549.487 1343.94 547.281 1350.14 542.995C1355.87 539.052 1359.95 533.13 1361.59 526.364L1361.92 524.755C1362.25 523.481 1362.98 522.347 1364.01 521.52C1364.53 521.005 1365.17 520.619 1365.87 520.393C1366.58 520.166 1367.32 520.105 1368.05 520.214L1394.84 524.414C1397.64 525.067 1399.04 526.576 1399.04 528.943C1398.83 531.555 1398.39 534.143 1397.74 536.681C1393.77 550.297 1384.92 561.97 1372.88 569.459C1359.75 577.719 1344.48 581.933 1328.97 581.576C1313.68 581.954 1298.66 577.483 1286.06 568.803V568.803Z" fill="white"/>
<path d="M1543.17 386.645C1540.93 384.444 1539.17 381.799 1538 378.88C1536.83 375.962 1536.29 372.832 1536.39 369.69C1536.28 366.57 1536.82 363.462 1537.99 360.567C1539.16 357.673 1540.92 355.057 1543.17 352.892C1545.51 350.724 1548.26 349.038 1551.25 347.93C1554.24 346.823 1557.42 346.316 1560.61 346.439C1563.77 346.306 1566.93 346.809 1569.9 347.917C1572.87 349.026 1575.58 350.717 1577.89 352.892C1580.09 355.082 1581.82 357.706 1582.95 360.597C1584.09 363.489 1584.62 366.585 1584.5 369.69C1584.61 372.818 1584.08 375.935 1582.94 378.851C1581.81 381.766 1580.09 384.419 1577.89 386.645C1575.61 388.866 1572.9 390.598 1569.93 391.737C1566.96 392.876 1563.79 393.397 1560.61 393.269C1557.41 393.388 1554.21 392.863 1551.22 391.726C1548.22 390.588 1545.49 388.86 1543.17 386.645V386.645ZM1541.88 573.805V419.101C1541.72 417.899 1542.04 416.68 1542.77 415.712C1543.5 414.744 1544.59 414.106 1545.79 413.939C1546.21 413.883 1546.63 413.883 1547.05 413.939H1574.17C1574.76 413.856 1575.37 413.892 1575.95 414.043C1576.53 414.195 1577.08 414.46 1577.56 414.823C1578.03 415.185 1578.44 415.639 1578.74 416.158C1579.04 416.676 1579.24 417.249 1579.33 417.845C1579.38 418.262 1579.38 418.685 1579.33 419.101V573.805C1579.42 574.506 1579.36 575.22 1579.13 575.892C1578.91 576.563 1578.53 577.173 1578.03 577.674C1577.53 578.175 1576.92 578.553 1576.25 578.778C1575.58 579.003 1574.87 579.069 1574.17 578.971H1547.05C1546.35 579.068 1545.63 579.001 1544.96 578.776C1544.29 578.551 1543.68 578.173 1543.18 577.673C1542.68 577.172 1542.3 576.562 1542.08 575.891C1541.85 575.22 1541.79 574.506 1541.88 573.805V573.805Z" fill="white"/>
<path d="M1753.79 496.945C1754.07 510.287 1752.22 523.588 1748.3 536.344C1744.27 549.533 1736.27 561.153 1725.38 569.608C1713.94 577.857 1700.08 582.061 1685.99 581.558C1679.07 581.785 1672.19 580.484 1665.83 577.748C1659.47 575.012 1653.78 570.909 1649.19 565.73C1648.75 565.076 1648.26 564.801 1647.73 564.925C1647.2 565.049 1646.93 565.519 1646.93 566.37V627.234C1646.93 630.679 1645 631.434 1641.76 632.397C1641.76 632.397 1617.63 639.243 1614.64 640.005C1611.65 640.766 1609.47 638.281 1609.47 634.845V419.111C1609.37 418.409 1609.44 417.694 1609.67 417.023C1609.89 416.351 1610.27 415.741 1610.77 415.24C1611.27 414.74 1611.88 414.363 1612.55 414.139C1613.22 413.915 1613.94 413.851 1614.64 413.951H1641.76C1642.46 413.852 1643.17 413.917 1643.85 414.142C1644.52 414.366 1645.13 414.743 1645.63 415.243C1646.13 415.743 1646.51 416.353 1646.73 417.024C1646.96 417.695 1647.02 418.409 1646.93 419.111V427.511C1646.93 428.374 1647.19 428.919 1647.73 429.123C1648.26 429.328 1648.75 429.024 1649.19 428.164C1653.6 422.706 1659.23 418.348 1665.61 415.433C1672 412.519 1678.98 411.126 1685.99 411.366C1699.89 410.994 1713.51 415.249 1724.73 423.462C1735.71 431.84 1743.83 443.408 1747.98 456.581C1752.03 469.644 1753.99 483.268 1753.79 496.945V496.945ZM1715.05 496.292C1715.05 480.791 1712.47 468.514 1707.32 459.459C1704.79 454.522 1700.88 450.428 1696.06 447.675C1691.24 444.923 1685.73 443.632 1680.2 443.959C1675 443.905 1669.9 445.297 1665.45 447.979C1661.01 450.66 1657.39 454.526 1655.02 459.144C1650.07 467.538 1647.6 480.022 1647.61 496.595C1647.61 513.39 1650.3 526.202 1655.68 535.031C1658.03 539.389 1661.53 543.018 1665.8 545.524C1670.07 548.03 1674.94 549.317 1679.89 549.245C1685.01 549.441 1690.08 548.292 1694.61 545.912C1699.14 543.531 1702.97 540.004 1705.71 535.681C1711.95 526.204 1715.07 513.068 1715.07 496.274L1715.05 496.292Z" fill="white"/>
<path d="M1855.8 444.298H1824.49C1824.27 444.266 1824.04 444.278 1823.82 444.333C1823.61 444.389 1823.4 444.487 1823.22 444.622C1823.04 444.756 1822.89 444.926 1822.78 445.119C1822.66 445.313 1822.59 445.527 1822.55 445.75C1822.53 445.911 1822.53 446.075 1822.55 446.236V522.455C1822.55 530.855 1824.33 536.886 1827.88 540.546C1831.43 544.207 1837.08 546.036 1844.83 546.034H1853.22C1853.82 545.95 1854.42 545.985 1855 546.136C1855.58 546.286 1856.13 546.55 1856.61 546.912C1857.09 547.274 1857.49 547.727 1857.8 548.245C1858.1 548.763 1858.3 549.336 1858.39 549.931C1858.45 550.353 1858.45 550.781 1858.39 551.203V572.829C1858.46 573.468 1858.42 574.117 1858.24 574.737C1858.07 575.358 1857.78 575.938 1857.38 576.445C1856.99 576.953 1856.49 577.377 1855.93 577.694C1855.37 578.011 1854.75 578.214 1854.12 578.292C1853.82 578.327 1853.52 578.335 1853.22 578.317L1837.73 578.645C1820.72 578.645 1808.02 575.683 1799.63 569.759C1791.24 563.834 1786.94 552.795 1786.72 536.64V446.236C1786.75 446.013 1786.74 445.786 1786.68 445.568C1786.63 445.35 1786.53 445.145 1786.39 444.965C1786.26 444.785 1786.09 444.634 1785.9 444.519C1785.7 444.405 1785.49 444.33 1785.27 444.298C1785.1 444.273 1784.94 444.273 1784.78 444.298H1767.99C1767.29 444.395 1766.58 444.328 1765.91 444.102C1765.24 443.876 1764.63 443.498 1764.13 442.997C1763.63 442.497 1763.25 441.887 1763.02 441.216C1762.8 440.544 1762.73 439.83 1762.83 439.129V419.1C1762.66 417.898 1762.98 416.679 1763.72 415.711C1764.45 414.743 1765.53 414.105 1766.74 413.937C1767.15 413.882 1767.57 413.882 1767.99 413.937H1784.78C1785.23 414.003 1785.68 413.888 1786.05 413.618C1786.41 413.347 1786.65 412.944 1786.72 412.495C1786.74 412.331 1786.74 412.164 1786.72 412V383.434C1786.72 379.989 1788.19 379.426 1791.88 378.272L1817.39 370.661C1822.34 369.283 1822.55 372.388 1822.55 375.823V412.003C1822.52 412.225 1822.53 412.452 1822.59 412.669C1822.64 412.887 1822.74 413.091 1822.88 413.271C1823.01 413.451 1823.18 413.603 1823.37 413.718C1823.56 413.833 1823.78 413.908 1824 413.941C1824.16 413.965 1824.33 413.965 1824.49 413.941H1855.81C1857.01 413.775 1858.23 414.093 1859.19 414.825C1860.16 415.558 1860.8 416.644 1860.97 417.847C1861.02 418.264 1861.02 418.686 1860.97 419.103V439.117C1861.05 439.712 1861.01 440.318 1860.86 440.9C1860.71 441.481 1860.45 442.028 1860.08 442.507C1859.72 442.986 1859.27 443.39 1858.75 443.694C1858.23 443.998 1857.66 444.197 1857.06 444.28C1856.64 444.344 1856.22 444.35 1855.8 444.298V444.298Z" fill="white"/>
<path d="M935.894 418.8V446.657C935.894 447.931 935.389 449.152 934.489 450.054C933.589 450.955 932.369 451.462 931.095 451.464H883.138C882.099 451.464 881.101 451.877 880.366 452.612C879.631 453.348 879.218 454.345 879.218 455.385V573.804C879.218 574.486 879.083 575.161 878.82 575.79C878.558 576.419 878.174 576.99 877.691 577.47C877.207 577.95 876.633 578.33 876.002 578.587C875.371 578.845 874.695 578.975 874.014 578.97H846.892C845.526 578.969 844.216 578.426 843.25 577.46C842.284 576.493 841.741 575.183 841.74 573.816V421.567C841.74 419.545 842.543 417.606 843.972 416.177C845.402 414.747 847.34 413.944 849.361 413.944H874.023C874.28 413.941 874.536 413.953 874.791 413.981H931.052C931.686 413.978 932.315 414.101 932.902 414.341C933.489 414.582 934.023 414.936 934.472 415.384C934.922 415.831 935.279 416.363 935.523 416.949C935.767 417.534 935.893 418.163 935.894 418.797V418.8Z" fill="white"/>
<path d="M1516.2 418.788V446.669C1516.2 447.3 1516.07 447.925 1515.83 448.508C1515.59 449.09 1515.24 449.62 1514.79 450.067C1514.35 450.513 1513.82 450.867 1513.24 451.109C1512.65 451.351 1512.03 451.476 1511.4 451.476H1463.42C1462.38 451.476 1461.38 451.889 1460.65 452.625C1459.91 453.36 1459.5 454.358 1459.5 455.398V455.398V573.804C1459.5 575.174 1458.96 576.488 1457.99 577.457C1457.02 578.426 1455.7 578.97 1454.33 578.97H1427.22C1426.54 578.971 1425.87 578.838 1425.25 578.579C1424.62 578.321 1424.05 577.941 1423.57 577.463C1423.1 576.984 1422.72 576.416 1422.46 575.79C1422.2 575.164 1422.06 574.494 1422.06 573.816V573.816V421.567C1422.07 419.544 1422.87 417.605 1424.3 416.175C1425.73 414.746 1427.67 413.943 1429.69 413.944H1454.35C1454.61 413.941 1454.87 413.953 1455.13 413.981H1511.4C1512.03 413.981 1512.65 414.104 1513.23 414.345C1513.82 414.587 1514.35 414.94 1514.79 415.386C1515.24 415.832 1515.59 416.361 1515.83 416.944C1516.07 417.526 1516.2 418.151 1516.2 418.782L1516.2 418.788Z" fill="white"/>
<path d="M2265.72 582.904H2225.53L2179.37 452.095L2153.45 523.648H2193.34L2204.3 554.79H2143.71L2133.22 582.94H2093.03L2157.15 416.739H2201.56L2265.72 582.904ZM2982.27 582.904V551.761H2911.91V416.757H2876.23V582.958L2982.27 582.904ZM3187.91 582.904V551.761H3117.58V416.757H3081.85V582.958L3187.91 582.904ZM2678.63 446.494C2668.04 446.494 2657.7 449.628 2648.9 455.5C2640.1 461.372 2633.24 469.717 2629.19 479.481C2625.14 489.246 2624.08 499.99 2626.15 510.355C2628.21 520.721 2633.31 530.243 2640.79 537.716C2648.27 545.189 2657.81 550.278 2668.19 552.34C2678.57 554.402 2689.33 553.344 2699.1 549.299C2708.88 545.255 2717.24 538.406 2723.12 529.618C2728.99 520.831 2732.13 510.499 2732.13 499.931C2732.12 485.763 2726.48 472.18 2716.45 462.161C2706.41 452.143 2692.81 446.509 2678.63 446.494ZM2678.63 413.965C2695.65 413.962 2712.3 419.001 2726.45 428.444C2740.61 437.888 2751.65 451.313 2758.17 467.021C2764.68 482.728 2766.39 500.014 2763.07 516.69C2759.75 533.367 2751.55 548.686 2739.52 560.711C2727.48 572.735 2712.14 580.924 2695.44 584.243C2678.75 587.561 2661.44 585.86 2645.71 579.354C2629.98 572.848 2616.53 561.829 2607.08 547.692C2597.62 533.555 2592.57 516.934 2592.57 499.931C2592.57 477.131 2601.64 455.266 2617.78 439.144C2633.92 423.022 2655.82 413.965 2678.64 413.965H2678.63ZM3351.92 446.494C3341.34 446.494 3330.99 449.628 3322.2 455.5C3313.4 461.372 3306.54 469.717 3302.49 479.481C3298.44 489.246 3297.38 499.99 3299.44 510.355C3301.51 520.721 3306.6 530.243 3314.09 537.716C3321.57 545.189 3331.1 550.278 3341.48 552.34C3351.86 554.402 3362.62 553.344 3372.4 549.299C3382.18 545.255 3390.53 538.406 3396.41 529.618C3402.29 520.831 3405.43 510.499 3405.43 499.931C3405.41 485.763 3399.77 472.18 3389.74 462.161C3379.71 452.143 3366.11 446.509 3351.92 446.494ZM3351.92 413.965C3368.95 413.965 3385.59 419.007 3399.74 428.453C3413.9 437.899 3424.93 451.325 3431.45 467.033C3437.96 482.741 3439.67 500.026 3436.35 516.702C3433.02 533.377 3424.83 548.695 3412.79 560.717C3400.75 572.739 3385.41 580.927 3368.72 584.244C3352.02 587.561 3334.71 585.858 3318.98 579.352C3303.25 572.845 3289.81 561.827 3280.35 547.69C3270.89 533.553 3265.84 516.933 3265.84 499.931C3265.84 477.131 3274.91 455.266 3291.06 439.144C3307.2 423.022 3329.09 413.965 3351.92 413.965ZM2500.64 471.215C2500.64 500.752 2476.68 525.709 2447.08 525.709H2404.96V582.904H2369.52V416.702H2447.16C2476.69 416.702 2500.66 441.66 2500.66 471.196L2500.64 471.215ZM2468.07 471.215C2468.07 459.666 2458.66 449.322 2447.08 449.322H2404.96V493.18H2447.16C2458.68 493.18 2468.11 482.763 2468.11 471.196L2468.07 471.215ZM2338.9 633.348C2337.44 633.347 2335.99 633.698 2334.69 634.371C2333.39 635.044 2332.27 636.02 2331.43 637.216C2331.43 637.216 2323.45 646.338 2319.14 650.625C2292 677.762 2257.57 696.461 2220.02 704.457C2182.46 712.453 2143.39 709.403 2107.53 695.676C2071.67 681.95 2040.57 658.136 2017.99 627.118C1995.41 596.1 1982.31 559.209 1980.3 520.912C1978.28 482.615 1987.42 444.555 2006.62 411.341C2025.81 378.127 2054.24 351.183 2088.45 333.773C2122.67 316.363 2161.21 309.233 2199.39 313.247C2237.58 317.26 2273.79 332.246 2303.63 356.388C2301.96 361.223 2302 366.483 2303.75 371.29C2305.5 376.097 2308.84 380.16 2313.23 382.801C2317.62 385.441 2322.77 386.5 2327.85 385.8C2332.92 385.101 2337.6 382.685 2341.1 378.956C2344.61 375.227 2346.72 370.411 2347.1 365.311C2347.48 360.211 2346.1 355.135 2343.18 350.932C2340.26 346.729 2335.99 343.652 2331.08 342.214C2326.16 340.777 2320.9 341.066 2316.18 343.033C2283.07 315.941 2242.67 299.243 2200.07 295.046C2157.47 290.849 2114.58 299.34 2076.81 319.449C2039.04 339.558 2008.07 370.385 1987.81 408.043C1967.56 445.701 1958.91 488.506 1962.98 531.061C1967.05 573.617 1983.63 614.018 2010.66 647.171C2037.68 680.325 2073.92 704.748 2114.82 717.361C2155.72 729.975 2199.44 730.214 2240.48 718.048C2281.51 705.883 2318.02 681.858 2345.4 649.001C2346.7 647.726 2347.58 646.095 2347.94 644.315C2348.3 642.535 2348.12 640.689 2347.43 639.012C2346.73 637.334 2345.55 635.903 2344.03 634.901C2342.52 633.898 2340.74 633.37 2338.92 633.384L2338.9 633.348Z" fill="#3F20BA"/>
</mask>
<g mask="url(#mask0)">
<rect x="804" y="1554" width="2087" height="2659" transform="rotate(-90 804 1554)" fill="url(#paint0_linear)"/>
</g>
<path d="M3229.23 828.207C3224.98 828.456 3220.61 828.058 3216.09 827.015C3211.7 825.921 3207.93 823.795 3204.77 820.636C3200.6 816.079 3196.98 810.167 3193.91 802.899C3190.94 795.869 3188.84 789.735 3187.61 784.498C3186.34 779.142 3185.63 773.474 3185.49 767.496L3185.51 763.063C3185.36 757.373 3185.37 753.578 3185.55 751.677C3185.61 746.175 3186.65 738.648 3188.65 729.098C3190.4 719.937 3191.91 713.05 3193.2 708.438C3194.55 703.656 3196.18 699.385 3198.11 695.626C3199.98 691.747 3202.94 686.634 3207 680.288C3209.4 676.327 3213.1 673.29 3218.11 671.177C3222.04 669.517 3226.02 668.961 3230.04 669.509C3234.18 670.007 3237.94 671.929 3241.32 675.276C3243.36 676.799 3245.14 679.347 3246.65 682.922C3249.07 688.641 3250.31 695.415 3250.39 703.245C3250.46 711.074 3249.33 717.521 3246.97 722.586C3246.49 723.772 3245.53 724.667 3244.1 725.271C3242.67 725.875 3240.95 726.112 3238.93 725.982C3236.91 725.852 3234.99 725.468 3233.18 724.83C3231.25 723.257 3230.15 722.317 3229.88 722.01C3229.61 721.703 3229.75 721.364 3230.29 720.993C3230.81 719.23 3231.31 716.074 3231.77 711.525C3232.31 706.807 3232.48 703.224 3232.29 700.778L3231.25 695.321C3230.66 691.921 3230.16 689.745 3229.76 688.791C3229.3 687.719 3228.48 686.942 3227.3 686.46C3226.79 686.253 3226.24 686.276 3225.64 686.527C3224.69 686.93 3223.27 688.23 3221.39 690.427C3219.15 692.776 3216.91 696.602 3214.66 701.905C3212.47 707.039 3210.59 712.888 3209.01 719.452C3206.54 728.915 3204.8 736.598 3203.79 742.503C3202.89 748.357 3202.67 753.994 3203.14 759.414L3203.13 764.891C3203.45 765.317 3203.78 766.584 3204.1 768.692C3204.43 770.799 3204.55 772.574 3204.46 774.017C3205.71 781.632 3207.51 788.24 3209.88 793.84C3211.74 798.248 3213.77 801.885 3215.96 804.75C3218.27 807.565 3220.59 809.394 3222.91 810.239C3224.21 810.671 3225.76 810.509 3227.55 809.755C3229.45 808.95 3231.42 807.627 3233.45 805.787C3235.55 803.778 3237.72 801.598 3239.96 799.25C3242.2 796.902 3243.75 795.263 3244.62 794.333C3246.91 792.104 3248.94 789.771 3250.72 787.335C3252.62 784.849 3253.92 782.759 3254.6 781.064C3256.75 777.493 3258.77 775.304 3260.68 774.499C3262.02 773.369 3263.42 773.342 3264.85 774.42C3266.41 775.448 3267.72 777.212 3268.77 779.714C3269.48 781.382 3269.2 783.886 3267.94 787.225C3266.64 790.444 3264.81 793.602 3262.47 796.697C3261.71 798.561 3259.44 801.342 3255.67 805.041C3253.02 809.391 3249.58 813.72 3245.36 818.028C3241.26 822.285 3237.13 825.294 3232.96 827.055C3232 827.457 3230.76 827.841 3229.23 828.207ZM3300.58 786.501C3300.28 786.771 3299.82 787.032 3299.23 787.283C3296.73 788.34 3294.04 787.79 3291.16 785.635C3288.29 783.479 3285.92 780.198 3284.06 775.789C3283.05 773.406 3282.31 770.982 3281.83 768.517C3281.68 764.508 3281.28 761.729 3280.63 760.181C3280.03 757.766 3279.51 753.212 3279.07 746.518C3278.7 739.655 3278.56 735.502 3278.65 734.059C3279.13 733.858 3279.4 733.324 3279.45 732.459C3279.46 731.474 3279.26 730.505 3278.86 729.551C3278.4 728.479 3278.13 727.331 3278.03 726.108C3278.01 724.715 3278.13 723.68 3278.41 723.002C3278.26 722.645 3278.1 721.939 3277.93 720.885C3277.89 719.781 3277.79 719.05 3277.64 718.693C3277.54 718.455 3277.48 717.987 3277.47 717.291C3277.53 716.425 3277.48 715.814 3277.33 715.456C3277.67 710.958 3277.51 701.268 3276.85 686.388C3276.13 671.388 3275.47 663.174 3274.87 661.744C3274.46 660.791 3274.44 659.746 3274.81 658.61C3275.17 657.475 3275.83 656.705 3276.78 656.303C3276.99 655.795 3277.66 655.229 3278.8 654.607C3279.89 653.866 3280.8 653.344 3281.51 653.042L3285.58 654.695C3287.39 655.333 3288.86 655.978 3289.97 656.629C3291.09 657.28 3291.93 658.261 3292.48 659.572C3293.39 661.717 3293.87 664.037 3293.95 666.534C3294.09 668.862 3293.94 674.677 3293.52 683.982C3293.53 684.678 3293.49 687.225 3293.38 691.623C3293.19 694.509 3293.17 696.131 3293.33 696.488C3293.48 696.846 3293.56 697.721 3293.59 699.113C3293.57 700.387 3293.63 701.695 3293.77 703.037C3293.63 705.346 3293.51 709.396 3293.43 715.186C3293.41 720.808 3293.51 723.857 3293.71 724.333C3294.26 725.644 3294.37 726.723 3294.02 727.57C3293.67 727.721 3293.55 728.119 3293.69 728.765C3293.77 729.292 3293.86 729.675 3293.96 729.913C3294.46 731.105 3294.84 734.665 3295.1 740.593L3295.68 746.455C3296.68 755.156 3297.47 761.494 3298.02 765.471C3298.7 769.398 3299.56 772.612 3300.62 775.114C3301.73 777.736 3302.21 780.056 3302.08 782.077C3301.95 784.097 3301.45 785.572 3300.58 786.501ZM3315.88 689.701C3314.34 689.37 3312.93 688.701 3311.67 687.692C3310.4 686.683 3309.45 685.608 3308.83 684.467C3308.21 683.325 3308.03 682.56 3308.28 682.171C3308.65 681.035 3308.88 679.601 3308.99 677.87C3309.11 676.138 3309.21 674.899 3309.32 674.152C3309.37 671.605 3309.49 669.729 3309.68 668.525C3309.81 666.504 3310.21 665.284 3310.87 664.863C3311.62 663.984 3312.3 663.419 3312.89 663.167C3314.44 662.513 3316.34 662.345 3318.58 662.663C3320.94 662.93 3322.89 663.578 3324.45 664.605C3326.09 666.159 3327.21 667.651 3327.82 669.081C3329.02 671.941 3328.99 675.677 3327.7 680.289C3327.17 682.341 3326.24 684.136 3324.92 685.674C3323.61 687.213 3322.12 688.334 3320.45 689.038C3318.78 689.743 3317.26 689.964 3315.88 689.701ZM3326.84 769.519C3324.47 768.555 3322.38 765.929 3320.56 761.639C3319.61 759.375 3319.18 757.522 3319.27 756.079C3319.02 755.483 3318.84 754.718 3318.72 753.783C3318.61 752.849 3318.5 752.262 3318.4 752.024C3317.98 751.359 3317.63 749.192 3317.34 745.522C3317.41 741.702 3317.11 736.002 3316.44 728.425C3315.89 720.796 3315.42 715.377 3315.05 712.165C3314.8 711.569 3314.84 710.992 3315.16 710.433C3315.44 709.755 3316.03 709.156 3316.93 708.634C3318.04 707.604 3319.96 707.496 3322.69 708.309C3325.37 709.002 3327.79 710.085 3329.96 711.558C3330.97 711.971 3331.73 712.773 3332.23 713.964C3332.99 715.752 3333.27 718.581 3333.08 722.452C3333.04 724.014 3333.12 725.874 3333.33 728.032C3333.66 730.139 3334 732.103 3334.34 733.922C3334.27 737.742 3334.4 741.199 3334.72 744.292C3335.02 745.992 3335.28 747.284 3335.51 748.168C3336.54 752.929 3336.97 756.115 3336.81 757.728C3337.36 761.008 3337.3 763.7 3336.64 765.802C3335.93 767.785 3334.75 769.129 3333.08 769.833C3331.05 770.688 3328.97 770.584 3326.84 769.519ZM3385.65 752.06C3372.07 757.794 3362.01 752.917 3355.47 737.427C3353.1 731.827 3351.81 724.934 3351.58 716.747C3351.42 708.391 3352.25 700.532 3354.05 693.172C3355.93 685.642 3358.55 680.043 3361.91 676.376C3363.67 674.229 3366.04 672.526 3369.02 671.269C3374.38 669.005 3379.53 668.235 3384.47 668.958C3389.48 669.511 3393.34 673.005 3396.06 679.439C3397.61 683.133 3398.07 687.712 3397.43 693.177C3396.79 698.642 3395.22 703.728 3392.71 708.436C3390.28 712.974 3387.27 715.997 3383.7 717.506C3378.34 719.77 3373.08 719.954 3367.93 718.058C3367.61 722.964 3368.23 727.264 3369.79 730.958C3371.05 733.937 3372.39 736.109 3373.81 737.475C3375.18 738.723 3377.17 738.793 3379.79 737.686C3382.3 736.63 3384.17 735.417 3385.42 734.048C3386.67 732.679 3387.74 731.242 3388.65 729.735C3389.56 728.229 3390.27 727.086 3390.78 726.308L3391.35 725.648L3391.17 725.724C3392.81 723.627 3393.98 722.079 3394.68 721.081C3395.45 719.914 3396.15 719.06 3396.76 718.52C3398.55 717.765 3400.44 717.597 3402.44 718.015C3404.45 718.434 3405.77 719.417 3406.43 720.966C3406.93 722.158 3406.69 724.577 3405.7 728.222C3404.66 731.749 3403.24 734.527 3401.43 736.555L3399.74 738.533L3399.91 738.457C3399.45 740.34 3398.68 741.507 3397.6 741.96L3396.17 742.564C3396.1 743.718 3394.89 745.35 3392.55 747.461C3390.34 749.52 3388.03 751.053 3385.65 752.06ZM3376.76 705.063C3380.1 703.655 3382.23 701.068 3383.17 697.303C3384.23 693.488 3384.15 690.15 3382.94 687.29C3382.39 685.98 3381.53 684.939 3380.36 684.169C3379.31 683.348 3378.25 683.164 3377.18 683.617C3375.16 684.472 3373.3 686.381 3371.6 689.343C3369.9 692.306 3368.75 695.739 3368.15 699.642L3367.42 704.376C3367.79 703.936 3368.1 703.666 3368.34 703.566C3369.29 703.163 3370.18 703.278 3371.01 703.911C3371.84 704.544 3372.68 705.033 3373.52 705.377C3374.37 705.721 3375.45 705.617 3376.76 705.063ZM3478.69 659.711C3479.5 661.618 3480.61 666.905 3482.02 675.574C3482.24 676.747 3482.68 679.297 3483.36 683.223C3484.1 686.98 3484.79 689.778 3485.43 691.615C3485.98 692.926 3486.8 694.196 3487.88 695.424C3489.02 696.483 3489.65 697.132 3489.75 697.37C3490.25 698.562 3490.22 699.98 3489.65 701.624C3489.03 703.149 3487.89 704.264 3486.22 704.968C3483.24 706.226 3480.15 706.056 3476.95 704.459C3473.7 702.744 3471.19 699.8 3469.43 695.63C3467.92 692.056 3466.42 684.83 3464.91 673.953C3464.6 672.542 3464.37 671.513 3464.24 670.867C3464.18 670.052 3464.05 669.406 3463.84 668.929C3463.59 668.333 3463.29 668.111 3462.93 668.262C3462.1 668.614 3461.16 669.713 3460.11 671.558C3459.01 673.284 3457.87 675.24 3456.69 677.424L3453.81 683.064C3452.4 685.06 3449.8 690.022 3445.98 697.949C3445.4 698.897 3444.08 701.42 3442.02 705.519C3440.03 709.448 3438.79 711.513 3438.32 711.714C3437.84 711.916 3436.62 712.011 3434.65 712C3432.75 711.82 3430.83 711.436 3428.9 710.848C3427.08 710.21 3425.85 709.117 3425.2 707.568C3424.44 705.781 3423.78 701.217 3423.21 693.878C3422.63 686.538 3422.53 679.142 3422.89 671.688C3422.85 670.584 3422.51 668.621 3421.88 665.798C3420.55 661.308 3420.19 658.3 3420.81 656.775C3421.02 655.281 3421.78 654.258 3423.09 653.705C3425.48 652.699 3428.18 652.96 3431.21 654.487C3434.36 655.965 3436.54 658.133 3437.75 660.993C3438.61 663.019 3439.14 665.951 3439.36 669.79C3439.65 673.46 3439.68 675.693 3439.45 676.49C3439.71 676.101 3440.17 675.204 3440.84 673.798C3441.58 672.222 3442.65 670.436 3444.05 668.44C3446.8 663.632 3448.95 660.264 3450.53 658.336C3452.05 656.29 3453.1 654.792 3453.69 653.845C3454.01 653.286 3454.27 652.897 3454.46 652.677C3454.71 652.288 3454.9 652.068 3455.02 652.018C3455.33 651.748 3455.88 651.233 3456.68 650.473C3457.56 649.543 3458.29 648.953 3458.88 648.701C3460.67 647.947 3462.8 647.822 3465.25 648.328C3467.78 648.665 3469.32 649.488 3469.88 650.799C3470.03 651.156 3470.72 651.635 3471.96 652.237C3473.14 652.718 3474.31 653.489 3475.46 654.548C3476.56 655.488 3477.64 657.209 3478.69 659.711ZM3536.26 697.317C3531.57 699.16 3527.75 699.436 3524.82 698.147C3522.06 696.926 3519.87 694.409 3518.26 690.597C3517.86 689.643 3517.33 688.044 3516.66 685.799C3516.43 683.93 3516.09 682.111 3515.62 680.342C3515.11 677.469 3515.05 675.669 3515.44 674.941C3515.51 674.771 3515.53 674.482 3515.5 674.075C3515.47 673.667 3515.22 673.419 3514.77 673.332C3514.11 671.783 3513.74 669.412 3513.66 666.219C3513.54 665.284 3513.49 664.324 3513.49 663.339C3513.5 662.354 3513.51 661.718 3513.53 661.429C3513.19 661.291 3512.92 660.984 3512.72 660.508C3512.47 659.912 3512.52 659.19 3512.86 658.343C3513.32 657.446 3513.57 656.708 3513.61 656.131C3513.77 655.503 3513.57 655.027 3513.01 654.701C3512.52 654.206 3512.52 651.047 3513.01 645.225C3513.25 641.473 3513.35 639.393 3513.32 638.986C3513.05 638.678 3512.95 636.122 3513.03 631.316C3513.23 626.46 3513.43 622.793 3513.65 620.315C3514.47 619.266 3513.88 619.026 3511.87 619.592C3509.86 620.159 3507.52 621.08 3504.83 622.356C3500.84 623.897 3497.73 625.001 3495.48 625.668C3493.19 626.216 3491.23 626.409 3489.62 626.248C3488.44 625.766 3487.57 624.87 3487.01 623.559C3486.36 622.01 3486.29 620.354 3486.81 618.591C3487.45 616.777 3488.58 615.458 3490.19 614.635C3493.24 613.208 3497.83 610.779 3503.96 607.347L3512.78 602.784L3512.03 599.52C3512.17 598.196 3512.33 597.076 3512.51 596.16C3512.75 595.074 3512.81 594.208 3512.67 593.562C3512.66 592.866 3512.46 591.897 3512.08 590.655C3512.23 590.027 3512.33 588.584 3512.36 586.326C3512.51 584.017 3512.32 581.919 3511.8 580.031C3512.16 577.214 3512.45 574.566 3512.66 572.088C3512.95 569.44 3513.14 567.887 3513.22 567.429C3514.01 563.307 3515.71 560.692 3518.33 559.585C3519.76 558.982 3521.46 558.829 3523.41 559.129C3525.41 559.547 3527 559.997 3528.19 560.479C3529.37 560.961 3530.27 561.917 3530.87 563.347C3531.33 564.419 3531.44 566.194 3531.23 568.673C3531.15 569.827 3531.24 572.035 3531.5 575.297C3531.11 576.722 3530.85 578.588 3530.7 580.897C3530.5 583.087 3530.58 585.091 3530.92 586.91C3530.94 587.607 3530.93 588.592 3530.91 589.865C3530.83 591.02 3530.73 591.766 3530.59 592.105C3530.52 592.275 3530.31 592.435 3529.95 592.586C3530.37 593.25 3530.81 593.626 3531.27 593.714C3531.73 593.801 3532.37 593.669 3533.21 593.316C3533.8 593.065 3534.49 592.704 3535.28 592.232C3536.18 591.711 3537.29 591.173 3538.6 590.62C3539.74 589.998 3540.68 589.391 3541.41 588.801C3542.26 588.16 3543.1 587.664 3543.94 587.312C3544.42 587.11 3545.21 586.987 3546.31 586.942C3547.21 587.406 3548.08 588.65 3548.94 590.676C3549.59 592.225 3549.98 593.815 3550.11 595.446C3550.19 596.958 3549.94 598.043 3549.38 598.702C3548.83 599.073 3547.67 599.984 3545.9 601.435C3544.13 602.886 3542.07 604.174 3539.74 605.299L3530.65 610.192L3530.17 617.551C3529.94 619.333 3529.81 621.005 3529.76 622.567C3529.72 624.129 3529.63 625.08 3529.49 625.419C3529.74 626.015 3529.77 627.407 3529.57 629.597C3529.37 631.787 3529.26 633.518 3529.24 634.792C3529.35 636.712 3529.34 638.681 3529.21 640.702C3529.03 642.603 3528.92 643.842 3528.88 644.419C3528.52 644.57 3528.34 644.79 3528.32 645.078C3528.37 645.197 3528.47 645.436 3528.62 645.793L3529.58 647.072C3529.83 647.668 3529.79 648.389 3529.44 649.237C3529.07 649.676 3528.76 650.294 3528.54 651.091C3528.43 651.838 3528.37 652.356 3528.35 652.644C3528.69 652.782 3528.94 653.03 3529.09 653.387C3529.44 654.221 3529.48 655.469 3529.19 657.132C3530.05 659.158 3530.5 662.548 3530.54 667.304C3531.57 669.398 3532.26 670.718 3532.63 671.263C3533 671.809 3533.4 671.921 3533.83 671.601L3534.72 671.224L3538.58 669.385C3539.26 668.675 3539.82 669.493 3540.25 671.839C3540.8 674.135 3541.17 677.839 3541.36 682.952C3540.73 686.447 3539.83 689.635 3538.66 692.516C3537.66 695.465 3536.86 697.066 3536.26 697.317ZM3583.4 630.877C3583.09 631.147 3582.58 631.433 3581.87 631.735C3579.6 632.691 3577.38 632.577 3575.2 631.393C3573.08 630.04 3571.22 627.457 3569.61 623.644C3568.35 620.666 3567.33 616.746 3566.54 611.884C3566.8 607.844 3566.58 604.99 3565.87 603.322C3565.61 601.045 3565.48 598.08 3565.49 594.429C3565.44 590.659 3565.48 587.764 3565.61 585.743C3566.09 585.542 3566.39 584.924 3566.51 583.889C3566.76 582.803 3566.7 581.843 3566.35 581.009C3565.9 579.937 3565.62 578.789 3565.53 577.566C3565.5 576.173 3565.62 575.138 3565.9 574.46C3565.75 574.103 3565.74 573.406 3565.86 572.371C3565.93 571.216 3565.9 570.461 3565.75 570.103C3565.64 569.865 3565.61 569.457 3565.65 568.88C3565.76 568.133 3565.73 567.581 3565.58 567.224C3566.22 562.744 3566.47 554.704 3566.35 543.104C3566.23 531.504 3565.9 524.905 3565.36 523.306C3564.68 520.364 3565.25 518.72 3567.07 518.373C3567.46 517.645 3568.79 516.803 3571.06 515.847C3571.46 515.815 3572.25 515.837 3573.4 515.911C3574.55 515.985 3575.67 516.288 3576.73 516.82C3577.92 517.302 3578.82 518.114 3579.44 519.255C3580.19 520.346 3580.96 521.844 3581.76 523.751C3582.4 525.588 3582.69 527.781 3582.65 530.328C3582.55 532.756 3582.32 535.378 3581.97 538.196C3581.61 541.013 3581.4 542.999 3581.32 544.153L3580.81 549.423C3580.31 553.564 3580.19 555.933 3580.44 556.529C3580.64 557.005 3580.72 558.025 3580.68 559.587C3580.59 561.03 3580.54 562.244 3580.53 563.229C3580.23 565.18 3580.13 567.752 3580.21 570.945C3580.41 574.088 3580.64 575.958 3580.89 576.553C3580.87 576.842 3580.87 577.334 3580.89 578.031C3581.02 578.677 3580.95 579.339 3580.67 580.017C3580.31 580.168 3580.2 580.566 3580.33 581.212C3580.41 581.739 3580.51 582.122 3580.61 582.36C3580.86 582.956 3581.06 584.273 3581.22 586.312C3581.38 588.35 3581.38 590.669 3581.21 593.266C3582.04 606.534 3583.31 615.686 3585.01 620.722C3585.83 623.325 3585.99 625.363 3585.49 626.838C3585.11 628.263 3584.41 629.609 3583.4 630.877ZM3585.62 662.579C3583.76 664.488 3582.06 665.769 3580.51 666.423C3578.72 667.178 3576.34 667.199 3573.38 666.486C3570.83 665.454 3569.19 664.044 3568.43 662.256C3567.17 659.278 3568.12 655.368 3571.27 650.528C3573.19 647.754 3574.74 646.115 3575.93 645.612C3576.77 645.259 3578.52 645.082 3581.19 645.08C3585.72 645.834 3588.53 647.522 3589.64 650.144C3591.05 653.48 3589.71 657.625 3585.62 662.579Z" fill="black"/>
<defs>
<linearGradient id="paint0_linear" x1="1847.5" y1="1554" x2="1847.5" y2="4213" gradientUnits="userSpaceOnUse">
<stop offset="0.114583" stop-color="#E6484F"/>
<stop offset="0.895833" stop-color="#3F20BA"/>
</linearGradient>
</defs>
</svg>
